<?xml version="1.0"?>
<svg xmlns="http://www.w3.org/2000/svg" height="512px" viewBox="0 0 512 512" width="512px"><g><path d="m234.398438 301.621094 19.765624-19.769532-44.761718-25zm0 0" data-original="#000000" class="active-path" data-old_color="#000000" fill="#007BFF"/><path d="m456.828125 0h-118.472656c-26.007813 0-60.789063 14.40625-79.175781 32.796875l-243.070313 243.066406c-10.390625 10.386719-16.109375 24.238281-16.109375 39.007813 0 14.769531 5.722656 28.621094 16.109375 39.007812l142.007813 142.011719c10.386718 10.386719 24.242187 16.109375 39.007812 16.109375 14.769531 0 28.621094-5.722656 39.011719-16.109375l243.066406-243.070313c18.390625-18.386718 32.796875-53.167968 32.796875-79.175781v-118.480469c-.003906-30.417968-24.753906-55.164062-55.171875-55.164062zm-244.808594 385.347656c-14.882812 14.886719-33.742187 18.75-40.332031 12.160156-3.179688-3.183593-5-10.910156-1.476562-14.433593 4.65625-4.652344 16.472656 1.023437 28.0625-10.5625 6.816406-6.820313 9.65625-15.792969 2.839843-22.609375-17.042969-17.042969-48.285156 24.652344-75.214843-2.273438-16.925782-16.929687-8.179688-37.265625 4.886718-50.332031 6.703125-6.703125 23.175782-19.996094 30.675782-12.496094 2.613281 2.609375 6.023437 9.65625 1.933593 13.746094-3.523437 3.519531-10.453125 1.816406-20 11.359375-8.175781 8.183594-9.539062 16.136719-4.085937 21.585938 14.085937 14.09375 45.671875-27.265626 75.097656 2.160156 16.246094 16.246094 13.292969 36.019531-2.386719 51.695312zm84.296875-86.339844c-2.496094 2.5-5.222656 3.632813-7.953125 2.046876l-19.425781-10.796876-26.019531 26.019532 10.796875 19.425781c1.589844 2.726563.449218 5.457031-2.050782 7.953125-3.972656 3.976562-11.8125 6.816406-15.449218 3.183594-.226563-.230469-.570313-.796875-.910156-1.363282l-49.535157-93.390624c-2.386719-4.433594.230469-10.230469 4.433594-14.429688 4.316406-4.316406 10.109375-6.933594 14.539063-4.546875l93.394531 49.535156c.566406.34375 1.023437.570313 1.359375.910157 3.523437 3.519531.800781 11.476562-3.179688 15.453124zm59.644532-59.648437-36.015626 36.019531c-3.296874 3.296875-8.066406 4.886719-11.136718 1.816406l-73.847656-73.847656c-3.183594-3.183594-.90625-8.183594 2.839843-11.933594 3.636719-3.632812 8.75-6.019531 11.929688-2.839843l65.554687 65.558593 27.722656-27.722656c2.957032-2.957031 7.613282-1.25 10.910157 2.046875 3.179687 3.179688 4.996093 7.953125 2.042969 10.902344zm59.417968-59.414063-40.445312 40.445313c-3.296875 3.296875-8.066406 4.886719-11.136719 1.816406l-73.734375-73.734375c-3.070312-3.066406-1.480469-7.839844 1.816406-11.132812l40.445313-40.449219c3.183593-3.179687 7.953125-1.359375 11.023437 1.707031 3.519532 3.523438 4.882813 8.292969 1.929688 11.25l-32.15625 32.148438 22.726562 22.722656 17.269532-17.265625c2.953124-2.953125 7.5-1.816406 10.566406 1.246094 2.613281 2.613281 4.203125 7.160156 1.019531 10.339843l-17.269531 17.269532 22.835937 22.835937 32.152344-32.152343c2.957031-2.953126 7.730469-1.589844 11.25 1.933593 3.070313 3.066407 4.886719 7.839844 1.707031 11.019531zm12.695313-73.945312c-2.792969 2.789062-6.660157 4.390625-10.609375 4.390625-3.953125 0-7.8125-1.601563-10.601563-4.390625-2.800781-2.789062-4.398437-6.65625-4.398437-10.609375 0-3.949219 1.597656-7.808594 4.398437-10.601563 2.789063-2.789062 6.648438-4.386718 10.601563-4.386718 3.949218 0 7.816406 1.597656 10.609375 4.386718 2.789062 2.792969 4.390625 6.652344 4.390625 10.601563 0 3.953125-1.601563 7.820313-4.390625 10.609375zm0 0" data-original="#000000" class="active-path" data-old_color="#000000" fill="#007BFF"/></g> </svg>
