<?xml version="1.0" encoding="utf-8"?>
<!-- Generator: Adobe Illustrator 23.0.0, SVG Export Plug-In . SVG Version: 6.00 Build 0)  -->
<svg version="1.1" id="Layer_1" xmlns="http://www.w3.org/2000/svg" xmlns:xlink="http://www.w3.org/1999/xlink" x="0px" y="0px"
	 viewBox="0 0 1920 1080" style="enable-background:new 0 0 1920 1080;" xml:space="preserve">
<style type="text/css">
	.st0{clip-path:url(#SVGID_2_);fill:#FFFFFF;}
	.st1{clip-path:url(#SVGID_2_);}
	.st2{display:none;clip-path:url(#SVGID_4_);fill:url(#SVGID_5_);}
	.st3{display:none;clip-path:url(#SVGID_2_);fill:url(#SVGID_6_);}
	.st4{display:none;clip-path:url(#SVGID_2_);fill:url(#SVGID_7_);}
	.st5{display:none;clip-path:url(#SVGID_2_);fill:url(#SVGID_8_);}
	.st6{display:none;clip-path:url(#SVGID_2_);fill:url(#SVGID_9_);}
	.st7{clip-path:url(#SVGID_2_);fill:url(#SVGID_10_);}
	.st8{clip-path:url(#SVGID_2_);fill:url(#SVGID_11_);}
	.st9{clip-path:url(#SVGID_2_);fill:url(#SVGID_12_);}
	.st10{clip-path:url(#SVGID_2_);fill:url(#SVGID_13_);}
	.st11{clip-path:url(#SVGID_2_);fill:url(#SVGID_14_);}
	.st12{clip-path:url(#SVGID_2_);fill:url(#SVGID_15_);}
	.st13{clip-path:url(#SVGID_2_);fill:url(#SVGID_16_);}
	.st14{clip-path:url(#SVGID_2_);fill:url(#SVGID_17_);}
	.st15{clip-path:url(#SVGID_2_);fill:url(#SVGID_18_);}
	.st16{clip-path:url(#SVGID_2_);fill:url(#SVGID_19_);}
</style>
<g>
	<g>
		<defs>
			<polygon id="SVGID_1_" points="0.21,-0.25 0.21,113.79 0.21,159 0.21,346.41 0.21,531.1 0.21,707.58 0.21,748.81 0.21,784.14 
				0.21,1080 11.15,1080 110.52,1080 296.86,1080 378.28,1080 405.43,1080 436.22,1080 448.45,1080 560.12,1080 647.23,1080 
				723.41,1080 750.78,1080 779.88,1080 1234.42,1080 1477.21,1080 1489.44,1080 1628.8,1080 1666.11,1080 1818.59,1080 1920,1080 
				1920,1066.61 1920,761.68 1920,738.52 1920,702.44 1920,591.7 1920,-0.25 			"/>
		</defs>
		<clipPath id="SVGID_2_">
			<use xlink:href="#SVGID_1_"  style="overflow:visible;"/>
		</clipPath>
		<rect x="83.02" y="86.98" class="st0" width="1762.36" height="912.73"/>
		<g class="st1">
			<defs>
				<path id="SVGID_3_" d="M1496.29-185.32c-107.01-29.9-218.98-60.15-329.39-42.97c-110.41,17.18-217.32,98.01-215.45,198.87
					c0.45,24.22,6.92,49.01-0.55,72.28c-17.05,53.11-90.66,67.23-145.23,92.58c-74.23,34.47-123.89,102.24-149.42,173.83
					c-25.53,71.59-29.85,147.7-33.97,222.81c-5.98,109.05-9.8,225.98,54.94,318.31c41.24,58.81,106,100.7,171.1,138.13
					c258.49,148.62,549.52,251.17,851.4,300.01c119.94,19.4,248.12,29.59,359.75-14.42c133.14-52.49,219.39-175.43,251.67-303.02
					c32.29-127.59,18.18-260.68-0.81-390.42c-19.26-131.57-43.66-263.54-94.99-387.94s-131.39-241.8-246.56-324.61
					c-115.18-82.82-268.09-127.87-413.01-103.63C1537.22-220.18,1514.81-200.66,1496.29-185.32z"/>
			</defs>
			<clipPath id="SVGID_4_">
				<use xlink:href="#SVGID_3_"  style="overflow:visible;"/>
			</clipPath>
			<linearGradient id="SVGID_5_" gradientUnits="userSpaceOnUse" x1="1038.1648" y1="-21.2173" x2="1259.7417" y2="463.7435">
				<stop  offset="0" style="stop-color:#FD00BF"/>
				<stop  offset="1" style="stop-color:#F4A986"/>
			</linearGradient>
			<rect x="354.52" y="-96.37" class="st2" width="1707.64" height="895.21"/>
		</g>
		<linearGradient id="SVGID_6_" gradientUnits="userSpaceOnUse" x1="711.4486" y1="922.5259" x2="1928.9646" y2="718.6357">
			<stop  offset="0" style="stop-color:#00D2FF"/>
			<stop  offset="0.9937" style="stop-color:#3A7BD5"/>
		</linearGradient>
		<path class="st3" d="M2192.84,292.73c-29.45-77.55-71.4-199.72-211.64-187.1c-90.58,8.15-173.15,209.22-218.3,280.39
			c-54.96,86.65-109.93,173.3-164.89,259.95c-25.69,40.5-57.29,85.01-108.07,94.22c-62.46,11.34-118.42-36.98-151.34-86.09
			c-31.56-47.09-54.02-98.72-85.08-146.08c-31.05-47.36-72.97-91.78-129.58-112.45c-75.08-27.42-163.73-7.31-229.52,35.27
			c-65.79,42.57-112.49,104.66-153.46,167.59c-116.81,179.47-198.56,377.38-240.39,581.95c74.54,84.21,183.56,135.36,298.6,164.82
			c298.76,76.49,620.28,79.57,920.77,8.81c77.59-18.27,155.63-42.25,217.96-87.68c78.57-57.28,124.42-142.81,160.88-227.7
			c97.12-226.09,236.1-198.78,203.7-439.43C2292.28,523.45,2260.41,470.65,2192.84,292.73z"/>
		<linearGradient id="SVGID_7_" gradientUnits="userSpaceOnUse" x1="1196.2401" y1="373.8269" x2="1327.4713" y2="1109.662">
			<stop  offset="0" style="stop-color:#314BF7"/>
			<stop  offset="1" style="stop-color:#12F5EE"/>
		</linearGradient>
		<path class="st4" d="M2070.49,493.51c-31.04,42.87-84.71,71.79-141.35,76.15c-56.63,4.36-114.99-15.93-153.66-53.43
			c-65.98-63.98-72.22-168.17-147.71-222.96c-65.27-47.37-164.78-39.92-235.48,0.65c-70.7,40.57-117.31,107.54-153.14,175.78
			c-35.83,68.24-63.52,140.33-108.34,204.11c-19.92,28.35-43.75,55.37-75.3,73.22c-31.55,17.84-71.95,25.39-106.77,13.47
			c-77.07-26.39-93.41-129.53-170.64-155.54c-37.96-12.78-81.87-2.31-114.86,18.88c-32.99,21.19-56.89,51.77-78.45,82.66
			C489.5,843.03,427.1,998.06,403.13,1157.85c134.44,143.65,326.59,243.02,530.03,284.7c203.44,41.68,415.8,36.23,622.28,9.27
			c104.96-13.71,210.06-33.2,306.7-72.55s184.98-100.05,239.14-182.14c52.85-80.11,70.15-174.8,82.01-267.36
			c9.99-77.93,16.8-157.1,3.2-234.59C2172.89,617.69,2134.57,546.67,2070.49,493.51z"/>
		<linearGradient id="SVGID_8_" gradientUnits="userSpaceOnUse" x1="1455.2272" y1="624.5891" x2="1644.991" y2="1252.27">
			<stop  offset="0" style="stop-color:#314BF7"/>
			<stop  offset="1" style="stop-color:#12F5EE"/>
		</linearGradient>
		<path class="st5" d="M2169.36,615.33c-44.93-19.7-99.93-5.92-141.74,18.74c-41.8,24.66-75.32,59.11-115.33,86.07
			c-40.01,26.96-91.26,46.62-139.48,34.8c-36.96-9.06-65.45-34.77-93.09-58.65c-42.7-36.9-88.15-72.06-140.63-96.72
			c-52.48-24.65-112.89-38.29-171.36-30.03c-106.64,15.06-184.69,97.1-243.37,178.66c-98.09,136.36-170.78,287.5-214.1,445.2
			c60.05,26.03,118.63,59.11,181.22,79.73c266.69,87.88,574.22,69.48,825.65-49.4c35.66-16.86,70.77-36.03,97.76-62.95
			c26.06-25.98,43.37-58,58.83-90.12C2141.36,930.11,2162.66,768.42,2169.36,615.33z"/>
		<linearGradient id="SVGID_9_" gradientUnits="userSpaceOnUse" x1="1512.183" y1="759.9873" x2="1716.459" y2="1198.9044">
			<stop  offset="0" style="stop-color:#314BF7"/>
			<stop  offset="1" style="stop-color:#12F5EE"/>
		</linearGradient>
		<path class="st6" d="M2010.65,612.95c-32.28-48.08-105.55-64.53-165.36-48.54c-59.82,15.99-107.12,57.97-142.14,104.47
			c-35.02,46.5-60.12,98.4-92.14,146.62c-22.51,33.9-54.9,69.25-98.75,70.32c-63.77,1.55-105.31-69.37-168.89-74.05
			c-40.81-3.01-77.16,22.51-105.02,49.53c-70,67.89-116.34,155.26-130.99,246.94c17.36,26.11,50.18,45.24,82.22,54.94
			c32.04,9.69,66.18,12.1,99.96,13.38c178.71,6.78,358.77-16.22,528.33-67.5c21.71-6.57,77.29,2.65,93.75-11.68
			c21.76-18.95-3.31-63.47,4.04-89.91C1952.28,875.74,1974.02,744.67,2010.65,612.95z"/>
		<linearGradient id="SVGID_10_" gradientUnits="userSpaceOnUse" x1="1540.1672" y1="707.3856" x2="1774.5502" y2="999.9813">
			<stop  offset="0.0106" style="stop-color:#FF512F"/>
			<stop  offset="0.9899" style="stop-color:#DD2476"/>
		</linearGradient>
		<path class="st7" d="M1338,1136c72.91-69.35-38.74-218.46,111-186c143,31-13-54,13-148c19.99-72.29,92-64,184-17
			c96.41,49.25,29-40,64-62c32.58-20.48,54.57,15.29,97-13c33.97-22.65-57-113-4-147c9.73-6.24,43-14,67,6c33.96,28.3,59,61.13,82,2
			c42-108,244.2,315.56,209,397c-51,118-161,387-298,321S1256,1214,1338,1136z"/>
		<linearGradient id="SVGID_11_" gradientUnits="userSpaceOnUse" x1="234.2247" y1="815.3218" x2="77.9694" y2="960.8538">
			<stop  offset="0.0106" style="stop-color:#FF512F"/>
			<stop  offset="0.9899" style="stop-color:#DD2476"/>
		</linearGradient>
		<path class="st8" d="M-92,755c66.49-144.07,252-139,306-92s-58,217-26,261s85,18,132,34s39,78,18,138s-233,135-295,80
			s-146-35-160-184S-116,807-92,755z"/>
		<linearGradient id="SVGID_12_" gradientUnits="userSpaceOnUse" x1="1423.2654" y1="384.6232" x2="1656.1165" y2="47.6019">
			<stop  offset="0.0106" style="stop-color:#FF512F"/>
			<stop  offset="0.9899" style="stop-color:#DD2476"/>
		</linearGradient>
		<path class="st9" d="M1382.73-289.21c-76.78,54.87-155.36,105.63-177.08,179.53c-22.7,77.26,31.15,139.69,67.76,173.23
			c27.12,24.84,89.57,44.51,119.32,33.8C1442.44,79.43,1464.11,58.4,1498,78c43.05,24.9-78.13,135.2-16,199
			c74.78,76.79,186.36-82.37,243-58s24.31,105.59,89,126.93c56.06,18.49,149.98-151.55,211.06-132.21
			c70.31,22.27,183.76-107.39,194.07-196.74c7.75-67.23-228.09-352.45-447.62-351.84S1407-306.56,1382.73-289.21z"/>
		<linearGradient id="SVGID_13_" gradientUnits="userSpaceOnUse" x1="296.7693" y1="239.2175" x2="85.3651" y2="57.6856">
			<stop  offset="0.0106" style="stop-color:#FF512F"/>
			<stop  offset="0.9899" style="stop-color:#DD2476"/>
		</linearGradient>
		<path class="st10" d="M292-24c88.2,57.33-34.45,143.04-29,210c7,86-96,103-139,78C87.19,242.6,53,154,3,184.55
			C-36.31,208.58-171,241-102,9S86-126,173-123S252-50,292-24z"/>
		<linearGradient id="SVGID_14_" gradientUnits="userSpaceOnUse" x1="1570.6937" y1="835.1888" x2="1782.098" y2="1120.1249">
			<stop  offset="0.0106" style="stop-color:#FF512F"/>
			<stop  offset="0.9899" style="stop-color:#DD2476"/>
		</linearGradient>
		<path class="st11" d="M1365,1208c0,0,90-201,173-209c98.58-9.5,137,42,145-49s20-130,114-101c120.3,37.11,57.5-57.3,81-96
			c34-56,109.89-31.83,122,15c15,58,70,495-49,495S1465,1389,1365,1208z"/>
		<linearGradient id="SVGID_15_" gradientUnits="userSpaceOnUse" x1="191.8974" y1="925.609" x2="5.0038" y2="1057.3536">
			<stop  offset="0.0106" style="stop-color:#FF512F"/>
			<stop  offset="0.9899" style="stop-color:#DD2476"/>
		</linearGradient>
		<path class="st12" d="M-137,926c53.79-154.35,211.79-150.47,220.89-44.23S87,1031,153,1040s81,74,44,154s-273,15-305-63
			S-160,992-137,926z"/>
		<linearGradient id="SVGID_16_" gradientUnits="userSpaceOnUse" x1="125.2168" y1="192.4203" x2="52.4508" y2="17.782">
			<stop  offset="0.0106" style="stop-color:#FF512F"/>
			<stop  offset="0.9899" style="stop-color:#DD2476"/>
		</linearGradient>
		<path class="st13" d="M-97,106c42-28,65-22,115,1s149,60,181-3s-20-121,6-167C182-108,42-129-5-78S-119,29-97,106z"/>
		<linearGradient id="SVGID_17_" gradientUnits="userSpaceOnUse" x1="185.7296" y1="363.7768" x2="35.602" y2="408.2023">
			<stop  offset="0.0106" style="stop-color:#FF512F"/>
			<stop  offset="0.9899" style="stop-color:#DD2476"/>
		</linearGradient>
		<path class="st14" d="M-184,399c18.42-152.92,181.31-197.25,268.76-95.35c9.57,11.15,12.3,26.54,7.14,40.3
			C83.88,365.32,68.63,385.69,103,407c50,31,91,69,58,106S19,634-64,586S-194,482-184,399z"/>
		<linearGradient id="SVGID_18_" gradientUnits="userSpaceOnUse" x1="127.0767" y1="391.3202" x2="7.5874" y2="416.5968">
			<stop  offset="0.0106" style="stop-color:#FF512F"/>
			<stop  offset="0.9899" style="stop-color:#DD2476"/>
		</linearGradient>
		<path class="st15" d="M-100,293c55-3,101-14,139,75c7,92,86.35,74.87,75,143c-8,48-127,53-160,52s-103-59-96-122S-163,325-100,293
			z"/>
		<linearGradient id="SVGID_19_" gradientUnits="userSpaceOnUse" x1="1591.252" y1="286.7023" x2="1703.5923" y2="-4.3615">
			<stop  offset="0.0106" style="stop-color:#FF512F"/>
			<stop  offset="0.9899" style="stop-color:#DD2476"/>
		</linearGradient>
		<path class="st16" d="M1342-101c6,36,26,144,193,69s16,147,20,192s37,68,174-31c67-32,103,15,111,69s65,91,142-47s208-183,78-270
			s-210-106-452-80S1361-137,1342-101z"/>
	</g>
</g>
</svg>
